<svg width="172" height="45" viewBox="0 0 172 45" fill="none" xmlns="http://www.w3.org/2000/svg">
<path d="M51.8691 12.9235H57.9409C61.4823 12.9235 63.2017 14.3658 63.2017 16.8293C63.2329 17.6011 63.0146 18.3623 62.5792 19.0002C62.1438 19.6381 61.5144 20.1187 60.7843 20.3708V20.417C63.0631 21.0021 64.0331 22.47 64.0331 24.4819C64.0331 27.0481 62.3394 28.9472 58.7518 28.9472H51.8691V12.9235ZM57.6021 19.3545C58.7775 19.3545 59.455 18.8413 59.455 17.7789C59.455 16.8499 58.9417 16.2391 57.402 16.2391H55.5543V19.3751L57.6021 19.3545ZM58.1154 25.6778C59.378 25.6778 60.1222 25.0875 60.1222 23.9584C60.1222 22.8292 59.3831 22.2236 57.9973 22.2236H55.5594V25.6624L58.1154 25.6778Z" fill="white"/>
<path d="M65.9062 20.9353C65.9062 16.1057 69.2937 12.7234 74.1696 12.7234C78.953 12.7234 82.4072 16.0389 82.4072 20.961C82.4072 25.8831 78.953 29.173 74.1696 29.173C69.2886 29.1525 65.9062 25.765 65.9062 20.9353ZM78.4552 20.9353C78.4552 18.2716 76.6486 16.2186 74.1696 16.2186C71.6906 16.2186 69.8583 18.3178 69.8583 20.9353C69.8583 23.5529 71.6392 25.6521 74.1696 25.6521C76.6999 25.6521 78.4552 23.6094 78.4552 20.9353V20.9353Z" fill="white"/>
<path d="M84.5938 20.9353C84.5938 16.1057 87.9812 12.7234 92.8519 12.7234C97.6405 12.7234 101.09 16.0389 101.09 20.961C101.09 25.8831 97.6405 29.173 92.8519 29.173C87.9812 29.1525 84.5938 25.765 84.5938 20.9353ZM97.1427 20.9353C97.1427 18.2716 95.3361 16.2186 92.8519 16.2186C90.3678 16.2186 88.5406 18.3178 88.5406 20.9353C88.5406 23.5529 90.3319 25.6624 92.8519 25.6624C95.372 25.6624 97.1427 23.6094 97.1427 20.9353V20.9353Z" fill="white"/>
<path d="M106.243 16.2853H102.065V12.9235H114.275V16.2853H110.077V28.9472H106.243V16.2853Z" fill="white"/>
<path d="M116.688 12.9235H120.475L124.925 21.4332H124.971L129.37 12.9235H133.183V28.9472H129.437V20.1244H129.396L126.142 25.9908H123.729L120.475 20.0987H120.409V28.9472H116.688V12.9235Z" fill="white"/>
<path d="M136.612 12.9235H140.471V28.9472H136.612V12.9235Z" fill="white"/>
<path d="M143.925 12.9235H147.559L153.944 22.8087H153.99V12.9235H157.716V28.9472H153.975L147.693 19.334H147.646V28.9472H143.925V12.9235Z" fill="white"/>
<path d="M161.053 12.9235H171.502V16.2853H164.753V19.3648H170.101V22.6188H164.753V25.5956H172V28.9472H161.053V12.9235Z" fill="white"/>
<path d="M19.4575 32.9249V38.9299L28.5882 33.2893V27.6538L19.4575 32.9249Z" fill="white"/>
<path d="M19.1699 0.0769161L0.292629 10.9783C0.202353 11.0298 0.127571 11.1046 0.0761055 11.1949C0.0246399 11.2852 -0.00161836 11.3877 7.72116e-05 11.4916V33.279C-0.00107848 33.3828 0.0254085 33.4851 0.0768199 33.5753C0.128231 33.6655 0.202716 33.7403 0.292629 33.7923L18.5848 44.3447C18.6739 44.3967 18.7752 44.4241 18.8783 44.4239C18.9814 44.4238 19.0827 44.3961 19.1716 44.3439C19.2605 44.2916 19.3338 44.2165 19.384 44.1264C19.4343 44.0364 19.4596 43.9345 19.4574 43.8314V39.2635C19.4596 39.1601 19.4341 39.058 19.3835 38.9677C19.333 38.8775 19.2593 38.8024 19.1699 38.7502L5.41999 30.8205C5.32971 30.7691 5.25493 30.6942 5.20346 30.604C5.152 30.5137 5.12574 30.4112 5.12744 30.3073V14.4428C5.12574 14.3388 5.152 14.2364 5.20346 14.1461C5.25493 14.0558 5.32971 13.981 5.41999 13.9295L19.1699 5.99981C19.2583 5.94941 19.3582 5.9229 19.4599 5.9229C19.5616 5.9229 19.6616 5.94941 19.7499 5.99981L33.4998 13.9398C33.5901 13.9913 33.6649 14.0661 33.7164 14.1564C33.7678 14.2466 33.7941 14.3491 33.7924 14.453V30.3176C33.7896 30.4211 33.8149 30.5234 33.8655 30.6137C33.9161 30.7041 33.9901 30.7791 34.0798 30.8308L38.0472 33.1199C38.1363 33.1719 38.2376 33.1993 38.3407 33.1992C38.4439 33.199 38.5451 33.1714 38.634 33.1191C38.7229 33.0668 38.7962 32.9918 38.8465 32.9017C38.8967 32.8116 38.922 32.7098 38.9198 32.6066V11.4813C38.9215 11.3774 38.8952 11.2749 38.8437 11.1846C38.7923 11.0944 38.7175 11.0196 38.6272 10.9681L19.7499 0.0769161C19.6616 0.0265102 19.5616 0 19.4599 0C19.3582 0 19.2583 0.0265102 19.1699 0.0769161Z" fill="white"/>
<path d="M10.7783 17.358L14.833 19.7087C14.8777 19.7339 14.928 19.7471 14.9793 19.7471C15.0305 19.7471 15.0809 19.7339 15.1256 19.7087L19.3137 17.2913C19.3581 17.2662 19.3949 17.2296 19.4202 17.1854C19.4456 17.1411 19.4584 17.0908 19.4574 17.0398V12.3179C19.4568 12.2671 19.443 12.2173 19.4173 12.1734C19.3917 12.1296 19.355 12.0931 19.311 12.0678C19.2669 12.0424 19.217 12.0289 19.1662 12.0287C19.1154 12.0284 19.0654 12.0414 19.0211 12.0664L10.7783 16.855C10.7347 16.8809 10.6986 16.9177 10.6735 16.9618C10.6484 17.0059 10.6353 17.0558 10.6353 17.1065C10.6353 17.1572 10.6484 17.2071 10.6735 17.2512C10.6986 17.2953 10.7347 17.3321 10.7783 17.358V17.358Z" fill="white"/>
<path d="M23.5019 20.0474L15.3977 24.7128C15.3502 24.7368 15.3103 24.7735 15.2824 24.8188C15.2545 24.8641 15.2397 24.9163 15.2397 24.9695C15.2397 25.0227 15.2545 25.0748 15.2824 25.1201C15.3103 25.1655 15.3502 25.2021 15.3977 25.2261L19.2933 27.4793C19.3379 27.5044 19.3883 27.5177 19.4396 27.5177C19.4908 27.5177 19.5412 27.5044 19.5858 27.4793L23.774 25.0619C23.8173 25.0356 23.8533 24.9988 23.8785 24.9548C23.9036 24.9108 23.9171 24.861 23.9177 24.8104V20.2989C23.9167 20.2504 23.9035 20.203 23.8793 20.161C23.855 20.1189 23.8206 20.0837 23.7791 20.0586C23.7376 20.0335 23.6904 20.0194 23.6419 20.0174C23.5935 20.0154 23.5453 20.0258 23.5019 20.0474V20.0474Z" fill="white"/>
</svg>
